<svg xmlns="http://www.w3.org/2000/svg" xmlns:xlink="http://www.w3.org/1999/xlink" width="500" zoomAndPan="magnify" viewBox="0 0 375 374.999991" height="500" preserveAspectRatio="xMidYMid meet" version="1.0"><defs><clipPath id="c4fade9414"><path d="M 53 6.300781 L 321.886719 6.300781 L 321.886719 370 L 53 370 Z M 53 6.300781 " clip-rule="nonzero"/></clipPath><clipPath id="7516b3096e"><path d="M 321.886719 7.800781 L 321.886719 296.679688 C 321.886719 297.605469 321.375 298.453125 320.5625 298.890625 L 188.824219 369.429688 C 187.996094 369.871094 187.003906 369.871094 186.175781 369.429688 L 54.4375 298.890625 C 53.625 298.453125 53.113281 297.605469 53.113281 296.679688 L 53.113281 7.800781 C 53.113281 7.402344 53.273438 7.019531 53.554688 6.738281 C 53.835938 6.457031 54.21875 6.300781 54.613281 6.300781 L 320.386719 6.300781 C 320.78125 6.300781 321.164062 6.457031 321.445312 6.738281 C 321.726562 7.019531 321.886719 7.402344 321.886719 7.800781 Z M 321.886719 7.800781 " clip-rule="nonzero"/></clipPath><clipPath id="f001b87e19"><path d="M 0.0390625 0.300781 L 268.886719 0.300781 L 268.886719 364 L 0.0390625 364 Z M 0.0390625 0.300781 " clip-rule="nonzero"/></clipPath><clipPath id="9db5bed039"><path d="M 268.886719 1.800781 L 268.886719 290.679688 C 268.886719 291.605469 268.375 292.453125 267.5625 292.890625 L 135.824219 363.429688 C 134.996094 363.871094 134.003906 363.871094 133.175781 363.429688 L 1.4375 292.890625 C 0.625 292.453125 0.113281 291.605469 0.113281 290.679688 L 0.113281 1.800781 C 0.113281 1.402344 0.273438 1.019531 0.554688 0.738281 C 0.835938 0.457031 1.21875 0.300781 1.613281 0.300781 L 267.386719 0.300781 C 267.78125 0.300781 268.164062 0.457031 268.445312 0.738281 C 268.726562 1.019531 268.886719 1.402344 268.886719 1.800781 Z M 268.886719 1.800781 " clip-rule="nonzero"/></clipPath><clipPath id="a519bf162a"><rect x="0" width="269" y="0" height="364"/></clipPath><clipPath id="fb85429f6b"><path d="M 65.722656 18.992188 L 307.984375 18.992188 L 307.984375 353.992188 L 65.722656 353.992188 Z M 65.722656 18.992188 " clip-rule="nonzero"/></clipPath><clipPath id="d5e69f2fa3"><path d="M 307.984375 19.742188 L 307.984375 288.078125 C 307.984375 288.539062 307.730469 288.960938 307.324219 289.179688 L 187.515625 353.332031 C 187.101562 353.554688 186.605469 353.554688 186.195312 353.332031 L 66.386719 289.179688 C 65.980469 288.960938 65.722656 288.539062 65.722656 288.078125 L 65.722656 19.742188 C 65.722656 19.328125 66.058594 18.992188 66.472656 18.992188 L 307.234375 18.992188 C 307.648438 18.992188 307.984375 19.328125 307.984375 19.742188 Z M 307.984375 19.742188 " clip-rule="nonzero"/></clipPath><clipPath id="c4cbed6186"><path d="M 0.722656 0.992188 L 242.984375 0.992188 L 242.984375 335.761719 L 0.722656 335.761719 Z M 0.722656 0.992188 " clip-rule="nonzero"/></clipPath><clipPath id="a7edfbd79a"><path d="M 242.984375 1.742188 L 242.984375 270.078125 C 242.984375 270.539062 242.730469 270.960938 242.324219 271.179688 L 122.515625 335.332031 C 122.101562 335.554688 121.605469 335.554688 121.195312 335.332031 L 1.386719 271.179688 C 0.980469 270.960938 0.722656 270.539062 0.722656 270.078125 L 0.722656 1.742188 C 0.722656 1.328125 1.058594 0.992188 1.472656 0.992188 L 242.234375 0.992188 C 242.648438 0.992188 242.984375 1.328125 242.984375 1.742188 Z M 242.984375 1.742188 " clip-rule="nonzero"/></clipPath><clipPath id="b116e76b24"><rect x="0" width="243" y="0" height="336"/></clipPath><clipPath id="9077e0a5a5"><path d="M 187.5 13.628906 L 312.875 13.628906 L 312.875 221.28125 L 187.5 221.28125 Z M 187.5 13.628906 " clip-rule="nonzero"/></clipPath><clipPath id="19d42174db"><path d="M 312.875 13.628906 L 312.875 187.636719 L 250.1875 221.203125 L 187.5 187.636719 L 187.5 13.628906 Z M 312.875 13.628906 " clip-rule="nonzero"/></clipPath><clipPath id="a8af6ff78a"><path d="M 0.5 0.628906 L 125.875 0.628906 L 125.875 208.28125 L 0.5 208.28125 Z M 0.5 0.628906 " clip-rule="nonzero"/></clipPath><clipPath id="06211a3d46"><path d="M 125.875 0.628906 L 125.875 174.636719 L 63.1875 208.203125 L 0.5 174.636719 L 0.5 0.628906 Z M 125.875 0.628906 " clip-rule="nonzero"/></clipPath><clipPath id="8da3795805"><rect x="0" width="126" y="0" height="209"/></clipPath><clipPath id="c4979df66f"><path d="M 183.257812 17.601562 L 191.742188 17.601562 L 191.742188 355.078125 L 183.257812 355.078125 Z M 183.257812 17.601562 " clip-rule="nonzero"/></clipPath><clipPath id="69f6997184"><path d="M 0.257812 0.601562 L 8.742188 0.601562 L 8.742188 338.078125 L 0.257812 338.078125 Z M 0.257812 0.601562 " clip-rule="nonzero"/></clipPath><clipPath id="ad8731f505"><rect x="0" width="9" y="0" height="339"/></clipPath><clipPath id="cbfd852310"><path d="M 61.472656 117.277344 L 186.847656 117.277344 L 186.847656 288.6875 L 61.472656 288.6875 Z M 61.472656 117.277344 " clip-rule="nonzero"/></clipPath><clipPath id="c7ab2589b7"><path d="M 61.472656 288.6875 L 61.472656 150.976562 L 124.160156 117.410156 L 186.847656 150.976562 L 186.847656 288.6875 Z M 61.472656 288.6875 " clip-rule="nonzero"/></clipPath><clipPath id="40e92709f6"><path d="M 0.472656 0.359375 L 125.847656 0.359375 L 125.847656 171.6875 L 0.472656 171.6875 Z M 0.472656 0.359375 " clip-rule="nonzero"/></clipPath><clipPath id="df557df461"><path d="M 0.472656 171.6875 L 0.472656 33.976562 L 63.160156 0.410156 L 125.847656 33.976562 L 125.847656 171.6875 Z M 0.472656 171.6875 " clip-rule="nonzero"/></clipPath><clipPath id="59dfab122a"><rect x="0" width="126" y="0" height="172"/></clipPath><clipPath id="bdd01a49ac"><path d="M 65.71875 226.441406 L 183.25 226.441406 L 183.25 351.777344 L 65.71875 351.777344 Z M 65.71875 226.441406 " clip-rule="nonzero"/></clipPath><clipPath id="d9d820351f"><path d="M 65.71875 288.996094 L 183.25 351.546875 L 183.25 226.441406 Z M 65.71875 288.996094 " clip-rule="nonzero"/></clipPath><clipPath id="07a971b5fb"><path d="M 0.71875 0.441406 L 118.25 0.441406 L 118.25 125.601562 L 0.71875 125.601562 Z M 0.71875 0.441406 " clip-rule="nonzero"/></clipPath><clipPath id="2299950c86"><path d="M 0.71875 62.996094 L 118.25 125.546875 L 118.25 0.441406 Z M 0.71875 62.996094 " clip-rule="nonzero"/></clipPath><clipPath id="b0aaeb20ea"><rect x="0" width="119" y="0" height="126"/></clipPath><clipPath id="e1b8023cb1"><path d="M 191.667969 18.992188 L 308.707031 18.992188 L 308.707031 210 L 191.667969 210 Z M 191.667969 18.992188 " clip-rule="nonzero"/></clipPath><clipPath id="bda6ba65af"><path d="M 308.707031 18.992188 L 308.707031 178.625 L 250.1875 209.957031 L 191.667969 178.625 L 191.667969 18.992188 Z M 308.707031 18.992188 " clip-rule="nonzero"/></clipPath><clipPath id="eb0e7fd31c"><path d="M 0.667969 0.992188 L 117.707031 0.992188 L 117.707031 192 L 0.667969 192 Z M 0.667969 0.992188 " clip-rule="nonzero"/></clipPath><clipPath id="e45266b5ac"><path d="M 117.707031 0.992188 L 117.707031 160.625 L 59.1875 191.957031 L 0.667969 160.625 L 0.667969 0.992188 Z M 117.707031 0.992188 " clip-rule="nonzero"/></clipPath><clipPath id="0445983104"><rect x="0" width="118" y="0" height="192"/></clipPath><clipPath id="8c8bad3642"><path d="M 65.71875 127 L 183.25 127 L 183.25 288.988281 L 65.71875 288.988281 Z M 65.71875 127 " clip-rule="nonzero"/></clipPath><clipPath id="c68a6c6dcc"><path d="M 65.71875 288.988281 L 65.71875 158.589844 L 124.484375 127.257812 L 183.25 158.589844 L 183.25 288.988281 Z M 65.71875 288.988281 " clip-rule="nonzero"/></clipPath><clipPath id="877ae9decd"><path d="M 0.71875 0.199219 L 118.25 0.199219 L 118.25 161.988281 L 0.71875 161.988281 Z M 0.71875 0.199219 " clip-rule="nonzero"/></clipPath><clipPath id="2ad8c8160c"><path d="M 0.71875 161.988281 L 0.71875 31.589844 L 59.484375 0.257812 L 118.25 31.589844 L 118.25 161.988281 Z M 0.71875 161.988281 " clip-rule="nonzero"/></clipPath><clipPath id="4b5ec342b4"><rect x="0" width="119" y="0" height="162"/></clipPath><clipPath id="b16d624b78"><path d="M 119.996094 239.308594 L 128.484375 239.308594 L 128.484375 322.65625 L 119.996094 322.65625 Z M 119.996094 239.308594 " clip-rule="nonzero"/></clipPath><clipPath id="b1e687ca32"><path d="M 128.484375 243.652344 L 128.484375 322.636719 L 119.996094 318.292969 L 119.996094 239.308594 Z M 128.484375 243.652344 " clip-rule="nonzero"/></clipPath><clipPath id="2924c87e72"><path d="M 0.996094 0.308594 L 9.484375 0.308594 L 9.484375 83.65625 L 0.996094 83.65625 Z M 0.996094 0.308594 " clip-rule="nonzero"/></clipPath><clipPath id="91ba79fa75"><path d="M 9.484375 4.652344 L 9.484375 83.636719 L 0.996094 79.292969 L 0.996094 0.308594 Z M 9.484375 4.652344 " clip-rule="nonzero"/></clipPath><clipPath id="8f910787f0"><rect x="0" width="10" y="0" height="84"/></clipPath><clipPath id="0dfc6ec474"><path d="M 120.445312 188.21875 L 128.527344 188.21875 L 128.527344 271.542969 L 120.445312 271.542969 Z M 120.445312 188.21875 " clip-rule="nonzero"/></clipPath><clipPath id="a6b9c6e66e"><path d="M 0.445312 0.21875 L 8.527344 0.21875 L 8.527344 83.542969 L 0.445312 83.542969 Z M 0.445312 0.21875 " clip-rule="nonzero"/></clipPath><clipPath id="224d940250"><rect x="0" width="9" y="0" height="84"/></clipPath><clipPath id="c4f2d4d4d8"><path d="M 120 162 L 154 162 L 154 195 L 120 195 Z M 120 162 " clip-rule="nonzero"/></clipPath><clipPath id="b78eeb4cd7"><path d="M 153.652344 168.28125 L 125.953125 194.066406 L 120.449219 188.148438 L 148.144531 162.367188 Z M 153.652344 168.28125 " clip-rule="nonzero"/></clipPath><clipPath id="fc484ced69"><path d="M 0.238281 0.238281 L 33.839844 0.238281 L 33.839844 32.160156 L 0.238281 32.160156 Z M 0.238281 0.238281 " clip-rule="nonzero"/></clipPath><clipPath id="975cc457ab"><path d="M 33.652344 6.28125 L 5.953125 32.066406 L 0.449219 26.148438 L 28.144531 0.367188 Z M 33.652344 6.28125 " clip-rule="nonzero"/></clipPath><clipPath id="bd10b8063e"><rect x="0" width="34" y="0" height="33"/></clipPath><clipPath id="5fbfa2ee34"><path d="M 145.566406 168.3125 L 153.648438 168.3125 L 153.648438 195.601562 L 145.566406 195.601562 Z M 145.566406 168.3125 " clip-rule="nonzero"/></clipPath><clipPath id="0a3e1e87fc"><path d="M 0.566406 0.3125 L 8.648438 0.3125 L 8.648438 27.601562 L 0.566406 27.601562 Z M 0.566406 0.3125 " clip-rule="nonzero"/></clipPath><clipPath id="aa7b633f89"><rect x="0" width="9" y="0" height="28"/></clipPath><clipPath id="abb5bc4ec1"><path d="M 120 189 L 154 189 L 154 222 L 120 222 Z M 120 189 " clip-rule="nonzero"/></clipPath><clipPath id="97b3e081ec"><path d="M 153.652344 195.710938 L 125.953125 221.496094 L 120.449219 215.582031 L 148.144531 189.796875 Z M 153.652344 195.710938 " clip-rule="nonzero"/></clipPath><clipPath id="d5b9714f65"><path d="M 0.238281 0.601562 L 33.839844 0.601562 L 33.839844 32.519531 L 0.238281 32.519531 Z M 0.238281 0.601562 " clip-rule="nonzero"/></clipPath><clipPath id="4fa660179a"><path d="M 33.652344 6.710938 L 5.953125 32.496094 L 0.449219 26.582031 L 28.144531 0.796875 Z M 33.652344 6.710938 " clip-rule="nonzero"/></clipPath><clipPath id="1e0a896b90"><rect x="0" width="34" y="0" height="33"/></clipPath><clipPath id="2b87e5a76a"><path d="M 96.984375 195.445312 L 105.066406 195.445312 L 105.066406 222.734375 L 96.984375 222.734375 Z M 96.984375 195.445312 " clip-rule="nonzero"/></clipPath><clipPath id="c95d193e8c"><path d="M 0.984375 0.445312 L 9.066406 0.445312 L 9.066406 27.734375 L 0.984375 27.734375 Z M 0.984375 0.445312 " clip-rule="nonzero"/></clipPath><clipPath id="7c5d036778"><rect x="0" width="10" y="0" height="28"/></clipPath><clipPath id="6d76874ff1"><path d="M 96 217 L 129 217 L 129 251 L 96 251 Z M 96 217 " clip-rule="nonzero"/></clipPath><clipPath id="a98fa4a8d5"><path d="M 102.933594 217.234375 L 128.527344 245.105469 L 122.578125 250.570312 L 96.984375 222.699219 Z M 102.933594 217.234375 " clip-rule="nonzero"/></clipPath><clipPath id="c823c67dca"><path d="M 0.960938 0.199219 L 32.640625 0.199219 L 32.640625 33.800781 L 0.960938 33.800781 Z M 0.960938 0.199219 " clip-rule="nonzero"/></clipPath><clipPath id="18637dabb2"><path d="M 6.933594 0.234375 L 32.527344 28.105469 L 26.578125 33.570312 L 0.984375 5.699219 Z M 6.933594 0.234375 " clip-rule="nonzero"/></clipPath><clipPath id="c77e3613d8"><rect x="0" width="33" y="0" height="34"/></clipPath><clipPath id="14693ef791"><path d="M 96 189 L 129 189 L 129 224 L 96 224 Z M 96 189 " clip-rule="nonzero"/></clipPath><clipPath id="d5d441d45b"><path d="M 102.933594 189.800781 L 128.527344 217.675781 L 122.578125 223.140625 L 96.984375 195.269531 Z M 102.933594 189.800781 " clip-rule="nonzero"/></clipPath><clipPath id="bc3b2d22e3"><path d="M 0.960938 0.601562 L 32.640625 0.601562 L 32.640625 34.199219 L 0.960938 34.199219 Z M 0.960938 0.601562 " clip-rule="nonzero"/></clipPath><clipPath id="87318094f8"><path d="M 6.933594 0.800781 L 32.527344 28.675781 L 26.578125 34.140625 L 0.984375 6.269531 Z M 6.933594 0.800781 " clip-rule="nonzero"/></clipPath><clipPath id="46ec696404"><rect x="0" width="33" y="0" height="35"/></clipPath><clipPath id="af22b6fdcd"><path d="M 277.140625 77.945312 L 297.972656 77.945312 L 297.972656 98.78125 L 277.140625 98.78125 Z M 277.140625 77.945312 " clip-rule="nonzero"/></clipPath><clipPath id="b66b6d1cfb"><path d="M 297.972656 88.363281 C 297.972656 82.609375 293.308594 77.945312 287.558594 77.945312 C 281.804688 77.945312 277.140625 82.609375 277.140625 88.363281 C 277.140625 94.117188 281.804688 98.78125 287.558594 98.78125 C 293.308594 98.78125 297.972656 94.117188 297.972656 88.363281 Z M 297.972656 88.363281 " clip-rule="nonzero"/></clipPath><clipPath id="5f65feddce"><path d="M 0.140625 0.945312 L 20.972656 0.945312 L 20.972656 21.78125 L 0.140625 21.78125 Z M 0.140625 0.945312 " clip-rule="nonzero"/></clipPath><clipPath id="45fc204385"><path d="M 20.972656 11.363281 C 20.972656 5.609375 16.308594 0.945312 10.558594 0.945312 C 4.804688 0.945312 0.140625 5.609375 0.140625 11.363281 C 0.140625 17.117188 4.804688 21.78125 10.558594 21.78125 C 16.308594 21.78125 20.972656 17.117188 20.972656 11.363281 Z M 20.972656 11.363281 " clip-rule="nonzero"/></clipPath><clipPath id="2b2390bc7c"><rect x="0" width="21" y="0" height="22"/></clipPath><clipPath id="bf59d6bb20"><path d="M 205 82 L 295 82 L 295 132 L 205 132 Z M 205 82 " clip-rule="nonzero"/></clipPath><clipPath id="5ab2c7b7c6"><path d="M 294.636719 125.996094 L 291.6875 131.824219 L 205.726562 88.335938 L 208.675781 82.511719 Z M 294.636719 125.996094 " clip-rule="nonzero"/></clipPath><clipPath id="6d50fe1c25"><path d="M 0.679688 0.320312 L 89.71875 0.320312 L 89.71875 50 L 0.679688 50 Z M 0.679688 0.320312 " clip-rule="nonzero"/></clipPath><clipPath id="a0a0809008"><path d="M 89.636719 43.996094 L 86.6875 49.824219 L 0.726562 6.335938 L 3.675781 0.511719 Z M 89.636719 43.996094 " clip-rule="nonzero"/></clipPath><clipPath id="7182e4d36f"><rect x="0" width="90" y="0" height="50"/></clipPath><clipPath id="c735666ff4"><path d="M 206 82 L 295 82 L 295 133 L 206 133 Z M 206 82 " clip-rule="nonzero"/></clipPath><clipPath id="0ed3619ed1"><path d="M 209.042969 132.160156 L 206.046875 126.359375 L 291.648438 82.167969 L 294.644531 87.96875 Z M 209.042969 132.160156 " clip-rule="nonzero"/></clipPath><clipPath id="a876c7106f"><path d="M 0 0.078125 L 88.71875 0.078125 L 88.71875 50.238281 L 0 50.238281 Z M 0 0.078125 " clip-rule="nonzero"/></clipPath><clipPath id="9ce36f2a01"><path d="M 3.042969 50.160156 L 0.046875 44.359375 L 85.648438 0.167969 L 88.644531 5.96875 Z M 3.042969 50.160156 " clip-rule="nonzero"/></clipPath><clipPath id="565308bd48"><rect x="0" width="89" y="0" height="51"/></clipPath><clipPath id="79b7cea33d"><path d="M 244 120 L 295 120 L 295 152 L 244 152 Z M 244 120 " clip-rule="nonzero"/></clipPath><clipPath id="2e420d0830"><path d="M 247.269531 151.023438 L 244.273438 145.222656 L 291.332031 120.929688 L 294.328125 126.730469 Z M 247.269531 151.023438 " clip-rule="nonzero"/></clipPath><clipPath id="456f54643d"><path d="M 0.078125 0.71875 L 50.480469 0.71875 L 50.480469 31.199219 L 0.078125 31.199219 Z M 0.078125 0.71875 " clip-rule="nonzero"/></clipPath><clipPath id="6390a8ddbc"><path d="M 3.269531 31.023438 L 0.273438 25.222656 L 47.332031 0.929688 L 50.328125 6.730469 Z M 3.269531 31.023438 " clip-rule="nonzero"/></clipPath><clipPath id="a3d7fe2041"><rect x="0" width="51" y="0" height="32"/></clipPath><clipPath id="239ef00213"><path d="M 206 63 L 257 63 L 257 94 L 206 94 Z M 206 63 " clip-rule="nonzero"/></clipPath><clipPath id="679d3633f4"><path d="M 209.039062 93.410156 L 206.042969 87.605469 L 253.101562 63.3125 L 256.097656 69.117188 Z M 209.039062 93.410156 " clip-rule="nonzero"/></clipPath><clipPath id="caee14b54d"><path d="M 0 0.121094 L 50.320312 0.121094 L 50.320312 30.601562 L 0 30.601562 Z M 0 0.121094 " clip-rule="nonzero"/></clipPath><clipPath id="f6bfe98b3f"><path d="M 3.039062 30.410156 L 0.0429688 24.605469 L 47.101562 0.3125 L 50.097656 6.117188 Z M 3.039062 30.410156 " clip-rule="nonzero"/></clipPath><clipPath id="9a1ed4cb48"><rect x="0" width="51" y="0" height="31"/></clipPath><clipPath id="564e6f4953"><path d="M 244 63 L 295 63 L 295 94 L 244 94 Z M 244 63 " clip-rule="nonzero"/></clipPath><clipPath id="d43843bcbb"><path d="M 294.328125 87.601562 L 291.34375 93.410156 L 244.234375 69.222656 L 247.214844 63.414062 Z M 294.328125 87.601562 " clip-rule="nonzero"/></clipPath><clipPath id="013d3d96e4"><path d="M 0.078125 0.359375 L 50.480469 0.359375 L 50.480469 30.601562 L 0.078125 30.601562 Z M 0.078125 0.359375 " clip-rule="nonzero"/></clipPath><clipPath id="e0cfdd3118"><path d="M 50.328125 24.601562 L 47.34375 30.410156 L 0.234375 6.222656 L 3.214844 0.414062 Z M 50.328125 24.601562 " clip-rule="nonzero"/></clipPath><clipPath id="724ca15ab4"><rect x="0" width="51" y="0" height="31"/></clipPath><clipPath id="7650b88366"><path d="M 206 121 L 257 121 L 257 152 L 206 152 Z M 206 121 " clip-rule="nonzero"/></clipPath><clipPath id="bd0c506fd7"><path d="M 256.660156 145.21875 L 253.675781 151.027344 L 206.566406 126.835938 L 209.546875 121.027344 Z M 256.660156 145.21875 " clip-rule="nonzero"/></clipPath><clipPath id="61ebe37c36"><path d="M 0.398438 0 L 50.800781 0 L 50.800781 30.199219 L 0.398438 30.199219 Z M 0.398438 0 " clip-rule="nonzero"/></clipPath><clipPath id="9c174c9475"><path d="M 50.660156 24.21875 L 47.675781 30.027344 L 0.566406 5.835938 L 3.546875 0.0273438 Z M 50.660156 24.21875 " clip-rule="nonzero"/></clipPath><clipPath id="544ebbad92"><rect x="0" width="51" y="0" height="31"/></clipPath><clipPath id="48c914e33f"><path d="M 252 75 L 288 75 L 288 124 L 252 124 Z M 252 75 " clip-rule="nonzero"/></clipPath><clipPath id="98b58f2308"><path d="M 287.410156 119.429688 L 281.949219 123.011719 L 252.894531 78.738281 L 258.355469 75.152344 Z M 287.410156 119.429688 " clip-rule="nonzero"/></clipPath><clipPath id="ac8a87ea06"><path d="M 0.71875 0.121094 L 35.519531 0.121094 L 35.519531 48.121094 L 0.71875 48.121094 Z M 0.71875 0.121094 " clip-rule="nonzero"/></clipPath><clipPath id="5242a35001"><path d="M 35.410156 44.429688 L 29.949219 48.011719 L 0.894531 3.738281 L 6.355469 0.152344 Z M 35.410156 44.429688 " clip-rule="nonzero"/></clipPath><clipPath id="de3be0f6e2"><rect x="0" width="36" y="0" height="49"/></clipPath><clipPath id="6347de438e"><path d="M 215 94 L 250 94 L 250 143 L 215 143 Z M 215 94 " clip-rule="nonzero"/></clipPath><clipPath id="7c23d8e679"><path d="M 249.675781 138.617188 L 244.21875 142.199219 L 215.160156 97.921875 L 220.621094 94.339844 Z M 249.675781 138.617188 " clip-rule="nonzero"/></clipPath><clipPath id="2cb9d461fc"><path d="M 0.0390625 0.320312 L 34.839844 0.320312 L 34.839844 48.320312 L 0.0390625 48.320312 Z M 0.0390625 0.320312 " clip-rule="nonzero"/></clipPath><clipPath id="a4c6c2d871"><path d="M 34.675781 44.617188 L 29.21875 48.199219 L 0.160156 3.921875 L 5.621094 0.339844 Z M 34.675781 44.617188 " clip-rule="nonzero"/></clipPath><clipPath id="1d19aba270"><rect x="0" width="35" y="0" height="49"/></clipPath><clipPath id="835b916b7d"><path d="M 214 73 L 249 73 L 249 122 L 214 122 Z M 214 73 " clip-rule="nonzero"/></clipPath><clipPath id="f59e7b4ea2"><path d="M 243.179688 73.179688 L 248.671875 76.710938 L 220.046875 121.265625 L 214.554688 117.734375 Z M 243.179688 73.179688 " clip-rule="nonzero"/></clipPath><clipPath id="1d499e7181"><path d="M 0.320312 0 L 34.878906 0 L 34.878906 48.441406 L 0.320312 48.441406 Z M 0.320312 0 " clip-rule="nonzero"/></clipPath><clipPath id="c89b48f7ba"><path d="M 29.179688 0.179688 L 34.671875 3.710938 L 6.046875 48.265625 L 0.554688 44.734375 Z M 29.179688 0.179688 " clip-rule="nonzero"/></clipPath><clipPath id="e17a450e4a"><rect x="0" width="35" y="0" height="49"/></clipPath><clipPath id="9d1dc57aa7"><path d="M 250 94 L 285 94 L 285 143 L 250 143 Z M 250 94 " clip-rule="nonzero"/></clipPath><clipPath id="27fc95e713"><path d="M 279.195312 94.839844 L 284.6875 98.371094 L 256.0625 142.925781 L 250.570312 139.394531 Z M 279.195312 94.839844 " clip-rule="nonzero"/></clipPath><clipPath id="f0c67b6790"><path d="M 0.558594 0.800781 L 34.878906 0.800781 L 34.878906 49 L 0.558594 49 Z M 0.558594 0.800781 " clip-rule="nonzero"/></clipPath><clipPath id="7d976ce20a"><path d="M 29.195312 0.839844 L 34.6875 4.371094 L 6.0625 48.925781 L 0.570312 45.394531 Z M 29.195312 0.839844 " clip-rule="nonzero"/></clipPath><clipPath id="24e50a1445"><rect x="0" width="35" y="0" height="49"/></clipPath><clipPath id="43f359a9ec"><path d="M 277.140625 115.5625 L 297.972656 115.5625 L 297.972656 136.394531 L 277.140625 136.394531 Z M 277.140625 115.5625 " clip-rule="nonzero"/></clipPath><clipPath id="be632c2a44"><path d="M 297.972656 125.976562 C 297.972656 120.226562 293.308594 115.5625 287.558594 115.5625 C 281.804688 115.5625 277.140625 120.226562 277.140625 125.976562 C 277.140625 131.730469 281.804688 136.394531 287.558594 136.394531 C 293.308594 136.394531 297.972656 131.730469 297.972656 125.976562 Z M 297.972656 125.976562 " clip-rule="nonzero"/></clipPath><clipPath id="62cd8c2818"><path d="M 0.140625 0.5625 L 20.972656 0.5625 L 20.972656 21.394531 L 0.140625 21.394531 Z M 0.140625 0.5625 " clip-rule="nonzero"/></clipPath><clipPath id="0b6a8b2da1"><path d="M 20.972656 10.976562 C 20.972656 5.226562 16.308594 0.5625 10.558594 0.5625 C 4.804688 0.5625 0.140625 5.226562 0.140625 10.976562 C 0.140625 16.730469 4.804688 21.394531 10.558594 21.394531 C 16.308594 21.394531 20.972656 16.730469 20.972656 10.976562 Z M 20.972656 10.976562 " clip-rule="nonzero"/></clipPath><clipPath id="9f2a947c85"><rect x="0" width="21" y="0" height="22"/></clipPath><clipPath id="b493834092"><path d="M 239.71875 96.753906 L 260.550781 96.753906 L 260.550781 117.585938 L 239.71875 117.585938 Z M 239.71875 96.753906 " clip-rule="nonzero"/></clipPath><clipPath id="d5f9e3abbf"><path d="M 260.550781 107.171875 C 260.550781 101.417969 255.890625 96.753906 250.136719 96.753906 C 244.382812 96.753906 239.71875 101.417969 239.71875 107.171875 C 239.71875 112.921875 244.382812 117.585938 250.136719 117.585938 C 255.890625 117.585938 260.550781 112.921875 260.550781 107.171875 Z M 260.550781 107.171875 " clip-rule="nonzero"/></clipPath><clipPath id="20583dfb15"><path d="M 0.71875 0.753906 L 21.550781 0.753906 L 21.550781 21.585938 L 0.71875 21.585938 Z M 0.71875 0.753906 " clip-rule="nonzero"/></clipPath><clipPath id="5f3e259de4"><path d="M 21.550781 11.171875 C 21.550781 5.417969 16.890625 0.753906 11.136719 0.753906 C 5.382812 0.753906 0.71875 5.417969 0.71875 11.171875 C 0.71875 16.921875 5.382812 21.585938 11.136719 21.585938 C 16.890625 21.585938 21.550781 16.921875 21.550781 11.171875 Z M 21.550781 11.171875 " clip-rule="nonzero"/></clipPath><clipPath id="2efc45491f"><rect x="0" width="22" y="0" height="22"/></clipPath><clipPath id="0ab1639004"><path d="M 239.25 61.339844 L 260.085938 61.339844 L 260.085938 82.171875 L 239.25 82.171875 Z M 239.25 61.339844 " clip-rule="nonzero"/></clipPath><clipPath id="0c2349eb17"><path d="M 260.085938 71.757812 C 260.085938 66.003906 255.421875 61.339844 249.667969 61.339844 C 243.914062 61.339844 239.25 66.003906 239.25 71.757812 C 239.25 77.507812 243.914062 82.171875 249.667969 82.171875 C 255.421875 82.171875 260.085938 77.507812 260.085938 71.757812 Z M 260.085938 71.757812 " clip-rule="nonzero"/></clipPath><clipPath id="004ddd576a"><path d="M 0.25 0.339844 L 21.085938 0.339844 L 21.085938 21.171875 L 0.25 21.171875 Z M 0.25 0.339844 " clip-rule="nonzero"/></clipPath><clipPath id="63a429ecfd"><path d="M 21.085938 10.757812 C 21.085938 5.003906 16.421875 0.339844 10.667969 0.339844 C 4.914062 0.339844 0.25 5.003906 0.25 10.757812 C 0.25 16.507812 4.914062 21.171875 10.667969 21.171875 C 16.421875 21.171875 21.085938 16.507812 21.085938 10.757812 Z M 21.085938 10.757812 " clip-rule="nonzero"/></clipPath><clipPath id="097fb9537c"><rect x="0" width="22" y="0" height="22"/></clipPath><clipPath id="73d0f04fc3"><path d="M 239.25 132.507812 L 260.085938 132.507812 L 260.085938 153.34375 L 239.25 153.34375 Z M 239.25 132.507812 " clip-rule="nonzero"/></clipPath><clipPath id="8c7ea022cb"><path d="M 260.085938 142.925781 C 260.085938 137.171875 255.421875 132.507812 249.667969 132.507812 C 243.914062 132.507812 239.25 137.171875 239.25 142.925781 C 239.25 148.679688 243.914062 153.34375 249.667969 153.34375 C 255.421875 153.34375 260.085938 148.679688 260.085938 142.925781 Z M 260.085938 142.925781 " clip-rule="nonzero"/></clipPath><clipPath id="6e49695b6f"><path d="M 0.25 0.507812 L 21.085938 0.507812 L 21.085938 21.34375 L 0.25 21.34375 Z M 0.25 0.507812 " clip-rule="nonzero"/></clipPath><clipPath id="55c0b89601"><path d="M 21.085938 10.925781 C 21.085938 5.171875 16.421875 0.507812 10.667969 0.507812 C 4.914062 0.507812 0.25 5.171875 0.25 10.925781 C 0.25 16.679688 4.914062 21.34375 10.667969 21.34375 C 16.421875 21.34375 21.085938 16.679688 21.085938 10.925781 Z M 21.085938 10.925781 " clip-rule="nonzero"/></clipPath><clipPath id="5493c61afd"><rect x="0" width="22" y="0" height="22"/></clipPath><clipPath id="d84ea641ae"><path d="M 202.378906 77.945312 L 223.214844 77.945312 L 223.214844 98.78125 L 202.378906 98.78125 Z M 202.378906 77.945312 " clip-rule="nonzero"/></clipPath><clipPath id="da71c2995c"><path d="M 223.214844 88.363281 C 223.214844 82.609375 218.550781 77.945312 212.796875 77.945312 C 207.042969 77.945312 202.378906 82.609375 202.378906 88.363281 C 202.378906 94.117188 207.042969 98.78125 212.796875 98.78125 C 218.550781 98.78125 223.214844 94.117188 223.214844 88.363281 Z M 223.214844 88.363281 " clip-rule="nonzero"/></clipPath><clipPath id="8009d16f14"><path d="M 0.378906 0.945312 L 21.214844 0.945312 L 21.214844 21.78125 L 0.378906 21.78125 Z M 0.378906 0.945312 " clip-rule="nonzero"/></clipPath><clipPath id="b038f5bd33"><path d="M 21.214844 11.363281 C 21.214844 5.609375 16.550781 0.945312 10.796875 0.945312 C 5.042969 0.945312 0.378906 5.609375 0.378906 11.363281 C 0.378906 17.117188 5.042969 21.78125 10.796875 21.78125 C 16.550781 21.78125 21.214844 17.117188 21.214844 11.363281 Z M 21.214844 11.363281 " clip-rule="nonzero"/></clipPath><clipPath id="9ca566b563"><rect x="0" width="22" y="0" height="22"/></clipPath><clipPath id="cf3c8367f2"><path d="M 202.378906 115.5625 L 223.214844 115.5625 L 223.214844 136.394531 L 202.378906 136.394531 Z M 202.378906 115.5625 " clip-rule="nonzero"/></clipPath><clipPath id="aeccba892d"><path d="M 223.214844 125.976562 C 223.214844 120.226562 218.550781 115.5625 212.796875 115.5625 C 207.042969 115.5625 202.378906 120.226562 202.378906 125.976562 C 202.378906 131.730469 207.042969 136.394531 212.796875 136.394531 C 218.550781 136.394531 223.214844 131.730469 223.214844 125.976562 Z M 223.214844 125.976562 " clip-rule="nonzero"/></clipPath><clipPath id="8c487f10e2"><path d="M 0.378906 0.5625 L 21.214844 0.5625 L 21.214844 21.394531 L 0.378906 21.394531 Z M 0.378906 0.5625 " clip-rule="nonzero"/></clipPath><clipPath id="6727307f2b"><path d="M 21.214844 10.976562 C 21.214844 5.226562 16.550781 0.5625 10.796875 0.5625 C 5.042969 0.5625 0.378906 5.226562 0.378906 10.976562 C 0.378906 16.730469 5.042969 21.394531 10.796875 21.394531 C 16.550781 21.394531 21.214844 16.730469 21.214844 10.976562 Z M 21.214844 10.976562 " clip-rule="nonzero"/></clipPath><clipPath id="8275d7dcf4"><rect x="0" width="22" y="0" height="22"/></clipPath></defs><g clip-path="url(#c4fade9414)"><g clip-path="url(#7516b3096e)"><g transform="matrix(1, 0, 0, 1, 53, 6)"><g clip-path="url(#a519bf162a)"><g clip-path="url(#f001b87e19)"><g clip-path="url(#9db5bed039)"><path fill="#000000" d="M 0.113281 0.300781 L 268.886719 0.300781 L 268.886719 364.609375 L 0.113281 364.609375 Z M 0.113281 0.300781 " fill-opacity="1" fill-rule="nonzero"/></g></g></g></g></g></g><g clip-path="url(#fb85429f6b)"><g clip-path="url(#d5e69f2fa3)"><g transform="matrix(1, 0, 0, 1, 65, 18)"><g clip-path="url(#b116e76b24)"><g clip-path="url(#c4cbed6186)"><g clip-path="url(#a7edfbd79a)"><path fill="#ffffff" d="M 0.722656 0.992188 L 242.984375 0.992188 L 242.984375 335.992188 L 0.722656 335.992188 Z M 0.722656 0.992188 " fill-opacity="1" fill-rule="nonzero"/></g></g></g></g></g></g><g clip-path="url(#9077e0a5a5)"><g clip-path="url(#19d42174db)"><g transform="matrix(1, 0, 0, 1, 187, 13)"><g clip-path="url(#8da3795805)"><g clip-path="url(#a8af6ff78a)"><g clip-path="url(#06211a3d46)"><path fill="#000000" d="M 0.5 0.628906 L 125.875 0.628906 L 125.875 208.28125 L 0.5 208.28125 Z M 0.5 0.628906 " fill-opacity="1" fill-rule="nonzero"/></g></g></g></g></g></g><g clip-path="url(#c4979df66f)"><g transform="matrix(1, 0, 0, 1, 183, 17)"><g clip-path="url(#ad8731f505)"><g clip-path="url(#69f6997184)"><path fill="#000000" d="M 0.257812 0.601562 L 8.742188 0.601562 L 8.742188 338.085938 L 0.257812 338.085938 Z M 0.257812 0.601562 " fill-opacity="1" fill-rule="nonzero"/></g></g></g></g><g clip-path="url(#cbfd852310)"><g clip-path="url(#c7ab2589b7)"><g transform="matrix(1, 0, 0, 1, 61, 117)"><g clip-path="url(#59dfab122a)"><g clip-path="url(#40e92709f6)"><g clip-path="url(#df557df461)"><path fill="#000000" d="M 125.847656 171.6875 L 0.472656 171.6875 L 0.472656 0.277344 L 125.847656 0.277344 Z M 125.847656 171.6875 " fill-opacity="1" fill-rule="nonzero"/></g></g></g></g></g></g><g clip-path="url(#bdd01a49ac)"><g clip-path="url(#d9d820351f)"><g transform="matrix(1, 0, 0, 1, 65, 226)"><g clip-path="url(#b0aaeb20ea)"><g clip-path="url(#07a971b5fb)"><g clip-path="url(#2299950c86)"><path fill="#e1e3de" d="M 118.25 0.441406 L 118.25 125.320312 L 0.71875 125.320312 L 0.71875 0.441406 Z M 118.25 0.441406 " fill-opacity="1" fill-rule="nonzero"/></g></g></g></g></g></g><g clip-path="url(#e1b8023cb1)"><g clip-path="url(#bda6ba65af)"><g transform="matrix(1, 0, 0, 1, 191, 18)"><g clip-path="url(#0445983104)"><g clip-path="url(#eb0e7fd31c)"><g clip-path="url(#e45266b5ac)"><path fill="#e1e3de" d="M 0.667969 0.992188 L 117.707031 0.992188 L 117.707031 192.089844 L 0.667969 192.089844 Z M 0.667969 0.992188 " fill-opacity="1" fill-rule="nonzero"/></g></g></g></g></g></g><g clip-path="url(#8c8bad3642)"><g clip-path="url(#c68a6c6dcc)"><g transform="matrix(1, 0, 0, 1, 65, 127)"><g clip-path="url(#4b5ec342b4)"><g clip-path="url(#877ae9decd)"><g clip-path="url(#2ad8c8160c)"><path fill="#e1e3de" d="M 118.25 161.988281 L 0.71875 161.988281 L 0.71875 0.382812 L 118.25 0.382812 Z M 118.25 161.988281 " fill-opacity="1" fill-rule="nonzero"/></g></g></g></g></g></g><g clip-path="url(#b16d624b78)"><g clip-path="url(#b1e687ca32)"><g transform="matrix(1, 0, 0, 1, 119, 239)"><g clip-path="url(#8f910787f0)"><g clip-path="url(#2924c87e72)"><g clip-path="url(#91ba79fa75)"><path fill="#000000" d="M 9.484375 0.308594 L 9.484375 83.621094 L 0.996094 83.621094 L 0.996094 0.308594 Z M 9.484375 0.308594 " fill-opacity="1" fill-rule="nonzero"/></g></g></g></g></g></g><g clip-path="url(#0dfc6ec474)"><g transform="matrix(1, 0, 0, 1, 120, 188)"><g clip-path="url(#224d940250)"><g clip-path="url(#a6b9c6e66e)"><path fill="#000000" d="M 8.527344 0.21875 L 8.527344 83.550781 L 0.445312 83.550781 L 0.445312 0.21875 Z M 8.527344 0.21875 " fill-opacity="1" fill-rule="nonzero"/></g></g></g></g><g clip-path="url(#c4f2d4d4d8)"><g clip-path="url(#b78eeb4cd7)"><g transform="matrix(1, 0, 0, 1, 120, 162)"><g clip-path="url(#bd10b8063e)"><g clip-path="url(#fc484ced69)"><g clip-path="url(#975cc457ab)"><path fill="#000000" d="M 33.652344 6.28125 L 5.949219 32.070312 L 0.441406 26.15625 L 28.144531 0.367188 Z M 33.652344 6.28125 " fill-opacity="1" fill-rule="nonzero"/></g></g></g></g></g></g><g clip-path="url(#5fbfa2ee34)"><g transform="matrix(1, 0, 0, 1, 145, 168)"><g clip-path="url(#aa7b633f89)"><g clip-path="url(#0a3e1e87fc)"><path fill="#000000" d="M 8.648438 0.3125 L 8.648438 27.585938 L 0.566406 27.585938 L 0.566406 0.3125 Z M 8.648438 0.3125 " fill-opacity="1" fill-rule="nonzero"/></g></g></g></g><g clip-path="url(#abb5bc4ec1)"><g clip-path="url(#97b3e081ec)"><g transform="matrix(1, 0, 0, 1, 120, 189)"><g clip-path="url(#1e0a896b90)"><g clip-path="url(#d5b9714f65)"><g clip-path="url(#4fa660179a)"><path fill="#000000" d="M 33.652344 6.710938 L 5.949219 32.5 L 0.441406 26.585938 L 28.144531 0.796875 Z M 33.652344 6.710938 " fill-opacity="1" fill-rule="nonzero"/></g></g></g></g></g></g><g clip-path="url(#2b87e5a76a)"><g transform="matrix(1, 0, 0, 1, 96, 195)"><g clip-path="url(#7c5d036778)"><g clip-path="url(#c95d193e8c)"><path fill="#000000" d="M 0.984375 27.734375 L 0.984375 0.460938 L 9.066406 0.460938 L 9.066406 27.734375 Z M 0.984375 27.734375 " fill-opacity="1" fill-rule="nonzero"/></g></g></g></g><g clip-path="url(#6d76874ff1)"><g clip-path="url(#a98fa4a8d5)"><g transform="matrix(1, 0, 0, 1, 96, 217)"><g clip-path="url(#c77e3613d8)"><g clip-path="url(#c823c67dca)"><g clip-path="url(#18637dabb2)"><path fill="#000000" d="M 6.933594 0.234375 L 32.535156 28.109375 L 26.582031 33.574219 L 0.984375 5.699219 Z M 6.933594 0.234375 " fill-opacity="1" fill-rule="nonzero"/></g></g></g></g></g></g><g clip-path="url(#14693ef791)"><g clip-path="url(#d5d441d45b)"><g transform="matrix(1, 0, 0, 1, 96, 189)"><g clip-path="url(#46ec696404)"><g clip-path="url(#bc3b2d22e3)"><g clip-path="url(#87318094f8)"><path fill="#000000" d="M 6.933594 0.800781 L 32.535156 28.679688 L 26.582031 34.144531 L 0.984375 6.269531 Z M 6.933594 0.800781 " fill-opacity="1" fill-rule="nonzero"/></g></g></g></g></g></g><g clip-path="url(#af22b6fdcd)"><g clip-path="url(#b66b6d1cfb)"><g transform="matrix(1, 0, 0, 1, 277, 77)"><g clip-path="url(#2b2390bc7c)"><g clip-path="url(#5f65feddce)"><g clip-path="url(#45fc204385)"><path fill="#000000" d="M 20.972656 0.945312 L 20.972656 21.78125 L 0.140625 21.78125 L 0.140625 0.945312 Z M 20.972656 0.945312 " fill-opacity="1" fill-rule="nonzero"/></g></g></g></g></g></g><g clip-path="url(#bf59d6bb20)"><g clip-path="url(#5ab2c7b7c6)"><g transform="matrix(1, 0, 0, 1, 205, 82)"><g clip-path="url(#7182e4d36f)"><g clip-path="url(#6d50fe1c25)"><g clip-path="url(#a0a0809008)"><path fill="#000000" d="M 89.636719 43.996094 L 86.6875 49.824219 L 0.726562 6.335938 L 3.675781 0.511719 Z M 89.636719 43.996094 " fill-opacity="1" fill-rule="nonzero"/></g></g></g></g></g></g><g clip-path="url(#c735666ff4)"><g clip-path="url(#0ed3619ed1)"><g transform="matrix(1, 0, 0, 1, 206, 82)"><g clip-path="url(#565308bd48)"><g clip-path="url(#a876c7106f)"><g clip-path="url(#9ce36f2a01)"><path fill="#000000" d="M 3.042969 50.160156 L 0.046875 44.359375 L 85.648438 0.167969 L 88.644531 5.96875 Z M 3.042969 50.160156 " fill-opacity="1" fill-rule="nonzero"/></g></g></g></g></g></g><g clip-path="url(#79b7cea33d)"><g clip-path="url(#2e420d0830)"><g transform="matrix(1, 0, 0, 1, 244, 120)"><g clip-path="url(#a3d7fe2041)"><g clip-path="url(#456f54643d)"><g clip-path="url(#6390a8ddbc)"><path fill="#000000" d="M 3.269531 31.023438 L 0.273438 25.222656 L 47.324219 0.933594 L 50.320312 6.734375 Z M 3.269531 31.023438 " fill-opacity="1" fill-rule="nonzero"/></g></g></g></g></g></g><g clip-path="url(#239ef00213)"><g clip-path="url(#679d3633f4)"><g transform="matrix(1, 0, 0, 1, 206, 63)"><g clip-path="url(#9a1ed4cb48)"><g clip-path="url(#caee14b54d)"><g clip-path="url(#f6bfe98b3f)"><path fill="#000000" d="M 3.039062 30.410156 L 0.0429688 24.605469 L 47.09375 0.316406 L 50.089844 6.121094 Z M 3.039062 30.410156 " fill-opacity="1" fill-rule="nonzero"/></g></g></g></g></g></g><g clip-path="url(#564e6f4953)"><g clip-path="url(#d43843bcbb)"><g transform="matrix(1, 0, 0, 1, 244, 63)"><g clip-path="url(#724ca15ab4)"><g clip-path="url(#013d3d96e4)"><g clip-path="url(#e0cfdd3118)"><path fill="#000000" d="M 50.328125 24.601562 L 47.34375 30.410156 L 0.238281 6.226562 L 3.222656 0.417969 Z M 50.328125 24.601562 " fill-opacity="1" fill-rule="nonzero"/></g></g></g></g></g></g><g clip-path="url(#7650b88366)"><g clip-path="url(#bd0c506fd7)"><g transform="matrix(1, 0, 0, 1, 206, 121)"><g clip-path="url(#544ebbad92)"><g clip-path="url(#61ebe37c36)"><g clip-path="url(#9c174c9475)"><path fill="#000000" d="M 50.660156 24.21875 L 47.675781 30.027344 L 0.574219 5.839844 L 3.554688 0.03125 Z M 50.660156 24.21875 " fill-opacity="1" fill-rule="nonzero"/></g></g></g></g></g></g><g clip-path="url(#48c914e33f)"><g clip-path="url(#98b58f2308)"><g transform="matrix(1, 0, 0, 1, 252, 75)"><g clip-path="url(#de3be0f6e2)"><g clip-path="url(#ac8a87ea06)"><g clip-path="url(#5242a35001)"><path fill="#000000" d="M 35.410156 44.429688 L 29.949219 48.011719 L 0.898438 3.742188 L 6.359375 0.160156 Z M 35.410156 44.429688 " fill-opacity="1" fill-rule="nonzero"/></g></g></g></g></g></g><g clip-path="url(#6347de438e)"><g clip-path="url(#7c23d8e679)"><g transform="matrix(1, 0, 0, 1, 215, 94)"><g clip-path="url(#1d19aba270)"><g clip-path="url(#2cb9d461fc)"><g clip-path="url(#a4c6c2d871)"><path fill="#000000" d="M 34.675781 44.617188 L 29.21875 48.199219 L 0.164062 3.929688 L 5.625 0.347656 Z M 34.675781 44.617188 " fill-opacity="1" fill-rule="nonzero"/></g></g></g></g></g></g><g clip-path="url(#835b916b7d)"><g clip-path="url(#f59e7b4ea2)"><g transform="matrix(1, 0, 0, 1, 214, 73)"><g clip-path="url(#e17a450e4a)"><g clip-path="url(#1d499e7181)"><g clip-path="url(#c89b48f7ba)"><path fill="#000000" d="M 29.179688 0.179688 L 34.671875 3.710938 L 6.050781 48.257812 L 0.558594 44.726562 Z M 29.179688 0.179688 " fill-opacity="1" fill-rule="nonzero"/></g></g></g></g></g></g><g clip-path="url(#9d1dc57aa7)"><g clip-path="url(#27fc95e713)"><g transform="matrix(1, 0, 0, 1, 250, 94)"><g clip-path="url(#24e50a1445)"><g clip-path="url(#f0c67b6790)"><g clip-path="url(#7d976ce20a)"><path fill="#000000" d="M 29.195312 0.839844 L 34.6875 4.371094 L 6.066406 48.917969 L 0.574219 45.390625 Z M 29.195312 0.839844 " fill-opacity="1" fill-rule="nonzero"/></g></g></g></g></g></g><g clip-path="url(#43f359a9ec)"><g clip-path="url(#be632c2a44)"><g transform="matrix(1, 0, 0, 1, 277, 115)"><g clip-path="url(#9f2a947c85)"><g clip-path="url(#62cd8c2818)"><g clip-path="url(#0b6a8b2da1)"><path fill="#000000" d="M 20.972656 0.5625 L 20.972656 21.394531 L 0.140625 21.394531 L 0.140625 0.5625 Z M 20.972656 0.5625 " fill-opacity="1" fill-rule="nonzero"/></g></g></g></g></g></g><g clip-path="url(#b493834092)"><g clip-path="url(#d5f9e3abbf)"><g transform="matrix(1, 0, 0, 1, 239, 96)"><g clip-path="url(#2efc45491f)"><g clip-path="url(#20583dfb15)"><g clip-path="url(#5f3e259de4)"><path fill="#000000" d="M 21.550781 0.753906 L 21.550781 21.585938 L 0.71875 21.585938 L 0.71875 0.753906 Z M 21.550781 0.753906 " fill-opacity="1" fill-rule="nonzero"/></g></g></g></g></g></g><g clip-path="url(#0ab1639004)"><g clip-path="url(#0c2349eb17)"><g transform="matrix(1, 0, 0, 1, 239, 61)"><g clip-path="url(#097fb9537c)"><g clip-path="url(#004ddd576a)"><g clip-path="url(#63a429ecfd)"><path fill="#000000" d="M 21.085938 0.339844 L 21.085938 21.171875 L 0.25 21.171875 L 0.25 0.339844 Z M 21.085938 0.339844 " fill-opacity="1" fill-rule="nonzero"/></g></g></g></g></g></g><g clip-path="url(#73d0f04fc3)"><g clip-path="url(#8c7ea022cb)"><g transform="matrix(1, 0, 0, 1, 239, 132)"><g clip-path="url(#5493c61afd)"><g clip-path="url(#6e49695b6f)"><g clip-path="url(#55c0b89601)"><path fill="#000000" d="M 21.085938 0.507812 L 21.085938 21.34375 L 0.25 21.34375 L 0.25 0.507812 Z M 21.085938 0.507812 " fill-opacity="1" fill-rule="nonzero"/></g></g></g></g></g></g><g clip-path="url(#d84ea641ae)"><g clip-path="url(#da71c2995c)"><g transform="matrix(1, 0, 0, 1, 202, 77)"><g clip-path="url(#9ca566b563)"><g clip-path="url(#8009d16f14)"><g clip-path="url(#b038f5bd33)"><path fill="#000000" d="M 21.214844 0.945312 L 21.214844 21.78125 L 0.378906 21.78125 L 0.378906 0.945312 Z M 21.214844 0.945312 " fill-opacity="1" fill-rule="nonzero"/></g></g></g></g></g></g><g clip-path="url(#cf3c8367f2)"><g clip-path="url(#aeccba892d)"><g transform="matrix(1, 0, 0, 1, 202, 115)"><g clip-path="url(#8275d7dcf4)"><g clip-path="url(#8c487f10e2)"><g clip-path="url(#6727307f2b)"><path fill="#000000" d="M 21.214844 0.5625 L 21.214844 21.394531 L 0.378906 21.394531 L 0.378906 0.5625 Z M 21.214844 0.5625 " fill-opacity="1" fill-rule="nonzero"/></g></g></g></g></g></g></svg>